<svg width="316" height="316" viewBox="0 0 316 316" fill="none" xmlns="http://www.w3.org/2000/svg">
<path d="M140.818 117.67V135.801H127.546V157.96H140.818V223.833H168.099V157.96H186.401C186.401 157.96 188.125 147.335 188.955 135.709H168.204V120.567C168.204 118.289 171.18 115.248 174.129 115.248H188.981V92.1666H168.77C140.146 92.1666 140.818 114.352 140.818 117.67Z" fill="black"/>
<path d="M158 31.3333C227.958 31.3334 284.666 88.0423 284.666 158C284.666 227.958 227.958 284.666 158 284.666C88.0424 284.666 31.3335 227.958 31.3333 158C31.3333 88.0422 88.0423 31.3333 158 31.3333Z" stroke="black" stroke-width="10"/>
</svg>
