<svg width="316" height="316" viewBox="0 0 316 316" fill="none" xmlns="http://www.w3.org/2000/svg">
<path d="M158.509 144.735C162.739 144.901 166.739 146.704 169.666 149.763C172.595 152.822 174.219 156.899 174.198 161.134C174.131 164.304 173.129 167.384 171.315 169.986C169.495 172.596 166.942 174.607 163.978 175.765C161.014 176.921 157.774 177.173 154.667 176.486C151.561 175.799 148.728 174.206 146.528 171.907C144.328 169.609 142.861 166.709 142.311 163.575C141.761 160.441 142.154 157.215 143.44 154.305C144.726 151.394 146.846 148.931 149.534 147.227C152.214 145.529 155.337 144.661 158.509 144.735Z" stroke="black" stroke-width="10"/>
<path d="M122.95 100.234H194.374L194.909 100.241C197.579 100.31 200.215 100.871 202.683 101.899C205.316 102.994 207.706 104.6 209.718 106.621C211.73 108.643 213.323 111.042 214.405 113.68C215.488 116.318 216.04 119.144 216.029 121.996V194.919C216.029 197.762 215.469 200.578 214.381 203.204C213.293 205.831 211.698 208.217 209.688 210.228C207.677 212.238 205.291 213.833 202.664 214.921C200.038 216.009 197.222 216.568 194.379 216.568H122.95C120.107 216.568 117.292 216.009 114.665 214.921C112.039 213.833 109.652 212.238 107.642 210.228C105.632 208.217 104.037 205.831 102.949 203.204C101.861 200.578 101.301 197.762 101.301 194.919V121.884C101.301 116.142 103.582 110.635 107.642 106.575C111.702 102.515 117.209 100.234 122.95 100.234ZM173.169 123.75C165.699 120.707 157.491 119.959 149.594 121.601C141.696 123.243 134.467 127.2 128.828 132.969C123.19 138.737 119.398 146.055 117.937 153.987C116.476 161.92 117.411 170.109 120.624 177.508C123.837 184.907 129.182 191.181 135.977 195.528C142.754 199.865 150.666 202.088 158.709 201.919L158.71 201.92C158.714 201.92 158.719 201.919 158.723 201.919C158.739 201.919 158.755 201.919 158.771 201.919L158.77 201.918C164.029 201.856 169.225 200.762 174.063 198.696C178.918 196.623 183.317 193.611 187.008 189.835C190.699 186.059 193.609 181.593 195.572 176.692C197.534 171.79 198.509 166.548 198.444 161.269C198.429 153.224 196.026 145.364 191.535 138.688C187.034 131.994 180.639 126.793 173.169 123.75ZM197.447 107.43C194.354 107.43 191.388 108.659 189.2 110.846C187.037 113.009 185.814 115.935 185.787 118.991H185.786C185.786 119.008 185.787 119.026 185.786 119.043C185.786 119.06 185.785 119.076 185.785 119.093H185.786C185.769 120.592 186.043 122.081 186.596 123.476C187.162 124.902 188.006 126.201 189.08 127.296C190.154 128.391 191.436 129.262 192.85 129.856C193.907 130.3 195.023 130.582 196.16 130.696L196.159 130.717C197.808 130.922 199.481 130.768 201.065 130.266C202.648 129.764 204.105 128.926 205.335 127.809C206.565 126.692 207.539 125.322 208.19 123.794C208.841 122.266 209.154 120.614 209.108 118.953H209.106C209.069 115.911 207.848 113 205.694 110.846C203.507 108.659 200.54 107.43 197.447 107.43Z" stroke="black" stroke-width="10"/>
<path d="M158.633 31.3336C175.267 31.4168 191.722 34.775 207.058 41.2174C222.394 47.6598 236.311 57.0598 248.014 68.8805C259.718 80.7014 268.978 94.7122 275.267 110.112C281.556 125.512 284.75 141.999 284.667 158.633C284.583 175.267 281.225 191.722 274.783 207.058C268.34 222.394 258.94 236.311 247.119 248.014C235.298 259.718 221.288 268.978 205.888 275.267C190.489 281.556 174.001 284.75 157.367 284.667C123.773 284.499 91.6208 270.992 67.985 247.119C44.3494 223.245 31.1657 190.961 31.3336 157.367C31.5016 123.773 45.0072 91.6208 68.8805 67.985C92.7539 44.3491 125.039 31.1656 158.633 31.3336ZM123.609 73.566C117.05 73.5311 110.549 74.7961 104.482 77.2887C98.4062 79.785 92.8859 83.4626 88.2418 88.108C83.5978 92.7535 79.9218 98.2746 77.4274 104.351C75.0109 110.238 73.75 116.533 73.7106 122.892V194.175C73.7518 200.535 75.015 206.829 77.4332 212.715C79.9295 218.791 83.6071 224.312 88.2526 228.956C92.898 233.6 98.4191 237.276 104.496 239.77C110.383 242.187 116.678 243.449 123.038 243.488H194.307C200.667 243.447 206.961 242.183 212.847 239.765C218.923 237.269 224.443 233.591 229.088 228.946C233.732 224.3 237.408 218.779 239.902 212.702C242.318 206.815 243.58 200.52 243.62 194.161V123.464C243.655 116.906 242.39 110.407 239.898 104.341C237.403 98.2664 233.727 92.7462 229.083 88.1022C224.439 83.4583 218.919 79.7821 212.844 77.2867C206.778 74.7952 200.279 73.5312 193.721 73.566V73.5651H123.609V73.566Z" stroke="black" stroke-width="10"/>
</svg>
