<svg width="316" height="316" viewBox="0 0 316 316" fill="none" xmlns="http://www.w3.org/2000/svg">
<g clip-path="url(#clip0_2208_6)">
<path d="M184.667 48C254.625 48.0002 311.333 104.709 311.333 174.667C311.333 244.625 254.625 301.333 184.667 301.333C114.709 301.333 58.0002 244.625 58 174.667C58 104.709 114.709 48 184.667 48Z" stroke="black" stroke-width="10"/>
<path d="M250.5 134.469C245.655 136.576 240.454 138.024 234.99 138.656C240.572 135.364 244.838 130.15 246.866 123.949C241.542 127.04 235.739 129.22 229.697 130.4C227.154 127.735 224.095 125.616 220.706 124.171C217.317 122.727 213.67 121.988 209.986 122C195.068 122 182.981 133.916 182.981 148.597C182.981 150.677 183.214 152.696 183.679 154.653C172.978 154.148 162.5 151.417 152.915 146.633C143.33 141.85 134.847 135.119 128.01 126.872C125.619 130.92 124.355 135.534 124.35 140.236C124.35 149.453 129.13 157.616 136.371 162.369C132.087 162.223 127.895 161.083 124.126 159.038V159.367C124.167 165.548 126.349 171.524 130.3 176.278C134.252 181.031 139.729 184.268 145.799 185.437C141.814 186.494 137.644 186.647 133.593 185.885C135.361 191.201 138.739 195.836 143.26 199.146C147.78 202.456 153.218 204.277 158.82 204.358C149.206 211.761 137.406 215.762 125.272 215.734C123.095 215.734 120.949 215.611 118.833 215.365C131.215 223.205 145.574 227.356 160.229 227.333C209.92 227.333 237.083 186.806 237.083 151.651L236.991 148.202C242.281 144.471 246.857 139.819 250.5 134.469Z" fill="black"/>
</g>
<defs>
<clipPath id="clip0_2208_6">
<rect width="316" height="316" fill="white"/>
</clipPath>
</defs>
</svg>
